<svg fill="none" height="24" viewBox="0 0 24 24" width="24" xmlns="http://www.w3.org/2000/svg"><path d="m20.4 20.4h-3.6v-6.36c0-.996-.804-1.8-1.8-1.8s-1.8.804-1.8 1.8v6.36h-3.6v-10.8h3.6v1.44c.6-1.008 1.908-1.68 3-1.68 2.316 0 4.2 1.884 4.2 4.2zm-15-12.828c-1.2 0-2.172-.972-2.172-2.172s.972-2.172 2.172-2.172 2.172.972 2.172 2.172-.972 2.172-2.172 2.172zm1.8 12.828h-3.6v-10.8h3.6zm14.4-20.4h-19.2c-1.332 0-2.4 1.068-2.4 2.4v19.2c0 1.32 1.08 2.4 2.4 2.4h19.2c1.32 0 2.4-1.08 2.4-2.4v-19.2c0-1.332-1.08-2.4-2.4-2.4z" fill="#424648"/></svg>